<?xml version="1.0" encoding="UTF-8"?>
<svg width="373px" height="276px" viewBox="0 0 373 276" version="1.1" xmlns="http://www.w3.org/2000/svg" xmlns:xlink="http://www.w3.org/1999/xlink">
    <!-- Generator: Sketch 44 (41411) - http://www.bohemiancoding.com/sketch -->
    <title>Group 20</title>
    <desc>Created with Sketch.</desc>
    <defs></defs>
    <g id="Desktop" stroke="none" stroke-width="1" fill="none" fill-rule="evenodd">
        <g id="Artboard-2-Copy" transform="translate(-92.000000, -1032.000000)">
            <g id="Group-20" transform="translate(92.000000, 1032.000000)">
                <g id="noun_874640" fill-rule="nonzero" fill="#FC9F40">
                    <path d="M186.500008,0.0144832841 C157.478986,0.0144832841 128.300251,11.0937901 106.173242,33.242623 C89.7178603,49.7143242 79.7421375,70.147672 75.5122364,91.45528 C32.573044,99.7934225 8.10869566e-06,137.331257 8.10869566e-06,182.642467 C8.10869566e-06,234.049798 41.8935842,275.985638 93.2500081,275.985638 L291.913035,275.985638 C336.624789,275.985638 372.999992,239.574091 372.999992,194.817664 C372.999992,152.577038 340.49142,118.19059 299.261541,114.410598 C299.452095,85.0317276 289.027556,55.5921843 266.699857,33.242623 C244.592326,11.11185 215.52103,0.0144832841 186.500008,0.0144832841 Z M186.500008,24.3648757 C209.359232,24.3648757 231.995872,32.8726188 249.468895,50.3639927 C269.661153,70.5761171 278.205691,98.0371505 275.062355,124.302945 C274.627074,127.764303 275.695895,131.246293 277.997738,133.865792 C280.299581,136.485291 283.613318,137.990654 287.098497,138.000081 L291.913035,138.000081 C323.568978,138.000081 348.673905,163.130092 348.673905,194.817664 C348.673905,226.505235 323.568978,251.635246 291.913035,251.635246 L93.2500081,251.635246 C55.0410233,251.635246 24.3260951,220.889629 24.3260951,182.642467 C24.3260951,146.523124 51.7679483,117.097461 86.9150896,113.903298 C92.5935088,113.349416 97.1243816,108.91949 97.8111494,103.250001 C100.049149,83.9519501 108.579903,65.2030001 123.40422,50.3639927 C140.86062,32.8906787 163.640784,24.3648757 186.500008,24.3648757 Z M186.500008,93.3576544 C182.444849,93.3576544 180.300505,94.66385 178.264817,96.5282784 L133.666991,137.112104 C128.517158,141.896144 128.60757,149.660267 132.906395,154.360298 C137.205626,159.06033 145.420545,159.400424 150.137373,155.121248 L174.336965,133.053705 L174.336965,219.168056 C174.336965,225.892011 179.781548,231.343252 186.500008,231.343252 C193.218873,231.343252 198.663052,225.892011 198.663052,219.168056 L198.663052,133.053705 L222.862643,155.121248 C227.579877,159.400424 235.546265,158.820478 240.093621,154.360298 C244.885455,149.660267 244.007689,141.437951 239.333025,137.112104 L194.735199,96.5282784 C192.325701,94.3201037 190.555167,93.3576544 186.500008,93.3576544 Z" id="Shape"></path>
                </g>
                <path d="M208.5,268.5 L289.5,268.5" id="Line" stroke="#FC9F40" stroke-width="7" stroke-linecap="square"></path>
            </g>
        </g>
    </g>
</svg>